# xmcd CD database file
#
# Track frame offsets:
#	180
#	9382
#	17299
#	25513
#	35775
#	44666
#	55972
#	66517
#	77865
#	86994
#
# Disc length: 1279 seconds
#
# Revision: 0
# Processed by: cddbd v1.5.2PL0 Copyright (c) Steve Scherf et al.
# Submitted via: CDex 1.70beta2
#
DISCID=7e04fd0a
DTITLE=Roger Miller (David Allan Coe presents) - David Allan Coe presents Roger Miller
DYEAR=2002
DGENRE=Country
TTITLE0=Chug-A-Lug
TTITLE1=Dang Me
TTITLE2=Do Wacka Do
TTITLE3=Engine Engine
TTITLE4=England Swings
TTITLE5=Husbands and Wives
TTITLE6=Kansas City Star
TTITLE7=King Of The Road
TTITLE8=My Uncle Used To Love Me But She Died
TTITLE9=You Can't Rollerskate In A Buffalo Herd
EXTD=YEAR: 2002
EXTT0=
EXTT1=
EXTT2=
EXTT3=
EXTT4=
EXTT5=
EXTT6=
EXTT7=
EXTT8=
EXTT9=
PLAYORDER=
